<?xml version="1.0" encoding="utf-8"?>
<svg xmlns="http://www.w3.org/2000/svg" viewBox="0 0 500 500">
  <defs>
    <style>
      path {
        fill: #0005DE;
      }
      @media ( prefers-color-scheme: dark ) {
        path {
          fill: #5559FF;
        }
      }
    </style>
  </defs>
  <title>logo4</title>
  <g id="页面-1" stroke="none" stroke-width="1" fill="none" fill-rule="evenodd" transform="matrix(1, 0, 0, 1, -11.383368, 14.803392)">
    <g id="logo4" transform="translate(0.45, 0.4419)" fill-rule="nonzero">
      <path d="M 409.784 75.199 C 420.776 75.647 431.649 77.619 442.097 81.057 C 468.058 89.924 485.098 107.746 494.373 133.29 C 499.189 146.35 501.745 160.135 501.935 174.053 C 502.288 206.538 502.448 239.02 502.212 271.515 C 502.283 288.277 499.171 304.901 493.045 320.503 C 482.12 347.653 462.468 365.015 434.075 371.965 C 409.442 377.996 384.861 377.588 360.753 369.256 C 336.646 360.923 320.301 344.161 310.769 320.653 C 306.739 310.329 304.049 299.532 302.769 288.523 C 302.733 288.351 302.729 288.173 302.758 287.998 L 351.746 277.342 C 352.699 282.13 353.471 287.408 354.82 292.529 C 357.797 303.795 363.174 313.638 372.867 320.632 C 380.256 325.986 388.653 328.407 397.651 328.932 C 409.988 329.672 421.673 327.637 431.794 319.979 C 440.972 313.039 445.984 303.399 448.994 292.56 C 451.309 283.632 452.389 274.429 452.207 265.207 C 452.207 236.44 452.304 207.673 452.025 178.905 C 451.907 166.545 449.487 154.539 443.2 143.625 C 435.702 130.602 424.114 123.844 409.42 122.109 C 399.385 120.931 389.511 121.744 380.15 125.847 C 366.805 131.705 359.308 142.576 355.217 156.103 C 352.003 166.534 351.446 177.255 351.533 188.061 L 351.533 188.951 C 351.518 194.397 351.238 194.5 345.534 196.576 C 332.006 201.506 318.103 205.334 303.957 208.026 C 303.176 208.175 302.373 208.218 301.376 208.336 L 301.376 203.527 C 301.516 193.117 301.323 182.696 301.88 172.319 C 302.951 152.762 307.01 133.922 317.109 116.818 C 328.538 97.54 345.492 85.395 366.944 79.418 C 380.899 75.681 395.37 74.256 409.784 75.199 Z M 157.422 79.804 C 185.386 87.804 203.882 106.064 213.778 133.215 C 218.474 146.311 221.045 160.071 221.393 173.978 C 221.747 184.903 221.693 195.827 221.811 206.751 C 221.811 207.329 221.736 207.908 221.672 208.892 C 217.173 208.015 212.749 207.457 208.498 206.258 C 196.868 202.981 185.321 199.415 173.733 196.009 C 172.116 195.527 171.591 194.692 171.591 192.988 C 171.699 183.103 171.773 173.218 169.771 163.46 C 167.628 152.964 163.902 143.219 156.414 135.261 C 149.4 127.764 140.639 123.833 130.614 122.409 C 119.905 120.877 109.397 121.573 99.383 125.976 C 86.178 131.79 78.831 142.576 74.697 155.91 C 71.772 165.367 70.948 175.113 70.958 184.967 C 70.958 213.734 70.874 242.501 71.13 271.268 C 71.237 283.049 73.497 294.617 79.088 305.22 C 86.681 319.604 98.826 327.133 114.848 328.782 C 124.182 329.923 133.654 328.662 142.363 325.12 C 152.891 320.685 160.056 312.846 164.77 302.629 C 167.922 295.649 169.928 288.206 170.713 280.586 C 170.863 279.505 171.088 278.497 171.183 277.93 L 220.654 288.341 C 219.583 293.695 218.705 299.425 217.344 305.081 C 213.467 321.221 206.635 335.926 195.207 348.178 C 182.805 361.427 167.36 369.223 149.754 372.876 C 128.172 377.343 106.635 377.107 85.386 370.938 C 57.293 362.776 38.786 344.344 28.879 317.044 C 24.046 303.909 21.483 290.05 21.295 276.056 C 20.942 243.572 20.782 211.088 21.017 178.594 C 20.957 161.912 24.061 145.368 30.164 129.842 C 41.045 102.916 60.602 85.823 88.716 78.851 C 111.297 73.064 135.011 73.393 157.422 79.804 Z M 380.364 188.747 L 427.402 195.976 L 412.998 246.422 C 410.085 241.29 407.375 236.536 404.505 231.427 C 358.857 254.507 310.812 267.927 259.467 267.745 C 208.124 267.563 160.131 253.822 114.463 230.4 L 105.382 246.368 C 100.486 229.339 95.763 212.791 90.975 196.009 L 137.993 188.79 L 130.871 201.514 C 165.53 219.068 201.74 230.656 240.457 233.644 C 292.594 237.714 341.38 225.772 388.096 202.499 L 384.358 195.87 L 380.364 188.747 Z" id="形状结合" style=""/>
    </g>
  </g>
</svg>